<?xml version="1.0" standalone="no"?>
<!DOCTYPE svg PUBLIC "-//W3C//DTD SVG 20010904//EN"
 "http://www.w3.org/TR/2001/REC-SVG-20010904/DTD/svg10.dtd">
<svg version="1.0" xmlns="http://www.w3.org/2000/svg"
 width="132.000000pt" height="132.000000pt" viewBox="0 0 132.000000 132.000000"
 preserveAspectRatio="xMidYMid meet">
<metadata>
Created by potrace 1.11, written by Peter Selinger 2001-2013
</metadata>
<g transform="translate(0.000000,132.000000) scale(0.100000,-0.100000)"
fill="#000000" stroke="none">
<path d="M175 1226 c-166 -74 -125 -347 74 -498 54 -42 68 -48 110 -48 42 0
57 6 110 45 98 72 171 191 179 290 l4 50 -90 89 -90 89 -59 -12 c-44 -10 -69
-10 -99 -2 -52 14 -102 13 -139 -3z m273 -203 c-42 -2 -114 -2 -160 0 -46 1
-11 3 77 3 88 0 125 -2 83 -3z m72 -73 c0 -6 -58 -10 -155 -10 -97 0 -155 4
-155 10 0 6 58 10 155 10 97 0 155 -4 155 -10z m0 -80 c0 -6 -56 -10 -149 -10
-89 0 -152 4 -156 10 -4 7 48 10 149 10 97 0 156 -4 156 -10z m-140 -70 c0 -6
-35 -10 -85 -10 -50 0 -85 4 -85 10 0 6 35 10 85 10 50 0 85 -4 85 -10z"/>
<path d="M750 1218 c-67 -34 -93 -90 -87 -188 6 -124 79 -243 194 -319 69 -46
121 -43 193 10 101 76 162 170 183 281 l11 59 -90 90 c-89 90 -89 90 -129 83
-50 -8 -94 -8 -170 0 -52 6 -66 4 -105 -16z"/>
<path d="M170 607 c-66 -35 -92 -91 -88 -187 2 -61 9 -88 36 -142 40 -81 120
-163 200 -206 l59 -31 62 37 c121 71 214 200 227 317 l7 57 -89 89 c-95 95
-106 100 -175 75 -28 -10 -42 -10 -70 0 -55 20 -121 17 -169 -9z m358 -299 l3
-118 -158 2 -158 2 153 3 152 4 0 109 0 109 -150 4 -150 3 152 -1 153 0 3
-117z m-198 42 c0 -5 -4 -10 -10 -10 -5 0 -10 5 -10 10 0 6 5 10 10 10 6 0 10
-4 10 -10z"/>
<path d="M784 614 c-108 -53 -134 -196 -62 -342 33 -66 115 -151 189 -194 l62
-37 59 31 c120 64 218 195 237 318 l9 55 -94 95 -93 95 -58 -15 c-47 -12 -65
-13 -93 -3 -49 17 -119 15 -156 -3z m253 -169 c2 -6 -36 -10 -102 -10 -100 0
-114 3 -98 19 11 10 196 2 200 -9z m80 -80 c2 -6 -15 -10 -37 -10 -26 0 -40 4
-40 13 0 16 72 13 77 -3z m-77 -84 c0 -12 -36 -21 -83 -21 -36 0 -38 -2 -35
-27 l3 -28 98 0 c126 0 124 -19 -3 -23 -101 -3 -110 1 -110 51 0 22 -5 27 -24
27 -31 0 -56 10 -56 21 0 5 47 9 105 9 58 0 105 -4 105 -9z m87 -48 c-3 -10
-5 -2 -5 17 0 19 2 27 5 18 2 -10 2 -26 0 -35z"/>
</g>
</svg>
